<?xml version="1.0" encoding="utf-8"?>
<!-- Generator: Adobe Illustrator 22.1.0, SVG Export Plug-In . SVG Version: 6.00 Build 0)  -->
<svg version="1.0" id="Layer_1" xmlns="http://www.w3.org/2000/svg" xmlns:xlink="http://www.w3.org/1999/xlink" x="0px" y="0px"
	 viewBox="0 0 22 22" style="enable-background:new 0 0 22 22;" xml:space="preserve">
<style type="text/css">
	.st0{clip-path:url(#SVGID_2_);fill:none;stroke:#FFFFFF;stroke-width:2;stroke-miterlimit:10;}
	.st1{fill:none;stroke:#FFFFFF;stroke-miterlimit:10;}
	.st2{clip-path:url(#SVGID_4_);fill:#FFFFFF;}
	.st3{clip-path:url(#SVGID_6_);fill:#4B5155;}
	.st4{fill:none;stroke:#FFFFFF;stroke-width:1.2;stroke-miterlimit:10;}
</style>
<g>
	<g>
		<defs>
			<rect id="SVGID_1_" x="4.1" y="7" width="10.7" height="8"/>
		</defs>
		<clipPath id="SVGID_2_">
			<use xlink:href="#SVGID_1_"  style="overflow:visible;"/>
		</clipPath>
		<rect x="4.1" y="7" class="st0" width="10.7" height="8"/>
	</g>
	<polyline class="st1" points="14.4,10.3 17.9,8.4 17.9,13.8 14.4,11.6 	"/>
	<g>
		<defs>
			<polygon id="SVGID_3_" points="8.4,9.6 8.4,12.5 10.7,11 			"/>
		</defs>
		<clipPath id="SVGID_4_">
			<use xlink:href="#SVGID_3_"  style="overflow:visible;"/>
		</clipPath>
		<rect x="3.4" y="4.6" class="st2" width="12.3" height="12.9"/>
	</g>
</g>
<g>
	<g>
		<defs>
			<path id="SVGID_5_" d="M2,0.1h18c1.1,0,2,0.9,2,2v18c0,1.1-0.9,2-2,2H2c-1.1,0-2-0.9-2-2v-18C0,1,0.9,0.1,2,0.1z"/>
		</defs>
		<clipPath id="SVGID_6_">
			<use xlink:href="#SVGID_5_"  style="overflow:visible;"/>
		</clipPath>
		<rect x="-5" y="-4.9" class="st3" width="32" height="32"/>
	</g>
	<g>
		<polygon class="st4" points="5,9.1 8.7,9.1 12.3,6.5 12.3,15.7 8.9,13.3 5,13.3 		"/>
		<line class="st4" x1="14.1" y1="8.6" x2="16.4" y2="7.1"/>
		<line class="st4" x1="14" y1="13.2" x2="16.3" y2="14.9"/>
		<line class="st4" x1="14.1" y1="10.9" x2="17" y2="10.9"/>
	</g>
</g>
</svg>
