<?xml version="1.0" encoding="utf-8"?>
<!-- Generator: Adobe Illustrator 22.1.0, SVG Export Plug-In . SVG Version: 6.00 Build 0)  -->
<svg version="1.0" id="Layer_1" xmlns="http://www.w3.org/2000/svg" xmlns:xlink="http://www.w3.org/1999/xlink" x="0px" y="0px"
	 viewBox="0 0 22 22" style="enable-background:new 0 0 22 22;" xml:space="preserve">
<style type="text/css">
	.st0{clip-path:url(#SVGID_2_);fill:#4B5155;}
	.st1{clip-path:url(#SVGID_4_);fill:#FFFFFF;}
	.st2{clip-path:url(#SVGID_6_);fill:#FFFFFF;}
	.st3{clip-path:url(#SVGID_8_);fill:#FFFFFF;}
</style>
<g>
	<g>
		<defs>
			<path id="SVGID_1_" d="M2,0h18c1.1,0,2,0.9,2,2v18c0,1.1-0.9,2-2,2H2c-1.1,0-2-0.9-2-2V2C0,0.9,0.9,0,2,0z"/>
		</defs>
		<clipPath id="SVGID_2_">
			<use xlink:href="#SVGID_1_"  style="overflow:visible;"/>
		</clipPath>
		<rect x="-5" y="-5" class="st0" width="32" height="32"/>
	</g>
	<g>
		<g>
			<defs>
				<polygon id="SVGID_3_" points="11,6.5 13.5,8.5 8.5,8.5 				"/>
			</defs>
			<clipPath id="SVGID_4_">
				<use xlink:href="#SVGID_3_"  style="overflow:visible;"/>
			</clipPath>
			<rect x="3.5" y="1.5" class="st1" width="15" height="12"/>
		</g>
		<g>
			<defs>
				<polygon id="SVGID_5_" points="11,15.5 8.5,13.5 13.5,13.5 				"/>
			</defs>
			<clipPath id="SVGID_6_">
				<use xlink:href="#SVGID_5_"  style="overflow:visible;"/>
			</clipPath>
			<rect x="3.5" y="8.5" class="st2" width="15" height="12"/>
		</g>
		<g>
			<defs>
				<rect id="SVGID_7_" x="5.5" y="10.5" width="11" height="1"/>
			</defs>
			<clipPath id="SVGID_8_">
				<use xlink:href="#SVGID_7_"  style="overflow:visible;"/>
			</clipPath>
			<rect x="0.5" y="5.5" class="st3" width="21" height="11"/>
		</g>
	</g>
</g>
</svg>
