<?xml version="1.0" encoding="utf-8"?>
<!-- Generator: Adobe Illustrator 22.1.0, SVG Export Plug-In . SVG Version: 6.00 Build 0)  -->
<svg version="1.0" id="Layer_1" xmlns="http://www.w3.org/2000/svg" xmlns:xlink="http://www.w3.org/1999/xlink" x="0px" y="0px"
	 viewBox="0 0 22 22" style="enable-background:new 0 0 22 22;" xml:space="preserve">
<style type="text/css">
	.st0{clip-path:url(#SVGID_2_);fill:none;stroke:#FFFFFF;stroke-width:2;stroke-miterlimit:10;}
	.st1{fill:none;stroke:#FFFFFF;stroke-miterlimit:10;}
	.st2{clip-path:url(#SVGID_4_);fill:none;stroke:#FFFFFF;stroke-width:2;stroke-miterlimit:10;}
	.st3{clip-path:url(#SVGID_6_);fill:#FFFFFF;}
	.st4{clip-path:url(#SVGID_8_);fill:#4B5155;}
</style>
<g>
	<g>
		<defs>
			<rect id="SVGID_1_" x="5" y="7.5" width="12" height="7"/>
		</defs>
		<clipPath id="SVGID_2_">
			<use xlink:href="#SVGID_1_"  style="overflow:visible;"/>
		</clipPath>
		<rect x="5" y="7.5" class="st0" width="12" height="7"/>
	</g>
	<polyline class="st1" points="5.6,8.2 11,11.2 16.4,8.2 	"/>
</g>
<g>
	<g>
		<defs>
			<rect id="SVGID_3_" x="4" y="8" width="14" height="6"/>
		</defs>
		<clipPath id="SVGID_4_">
			<use xlink:href="#SVGID_3_"  style="overflow:visible;"/>
		</clipPath>
		<rect x="4" y="8" class="st2" width="14" height="6"/>
	</g>
	<g>
		<defs>
			<rect id="SVGID_5_" x="7" y="10" width="8" height="2"/>
		</defs>
		<clipPath id="SVGID_6_">
			<use xlink:href="#SVGID_5_"  style="overflow:visible;"/>
		</clipPath>
		<rect x="2" y="5" class="st3" width="18" height="12"/>
	</g>
</g>
<g>
	<defs>
		<path id="SVGID_7_" d="M2,0h18c1.1,0,2,0.9,2,2v18c0,1.1-0.9,2-2,2H2c-1.1,0-2-0.9-2-2V2C0,0.9,0.9,0,2,0z"/>
	</defs>
	<clipPath id="SVGID_8_">
		<use xlink:href="#SVGID_7_"  style="overflow:visible;"/>
	</clipPath>
	<rect x="-5" y="-5" class="st4" width="32" height="32"/>
</g>
<g>
	<polyline class="st1" points="8,9 6,10.9 8,13 	"/>
	<polyline class="st1" points="14,13 16,11.1 14,9 	"/>
	<line class="st1" x1="12" y1="8" x2="10" y2="14"/>
</g>
</svg>
