<?xml version="1.0" encoding="utf-8"?>
<!-- Generator: Adobe Illustrator 22.1.0, SVG Export Plug-In . SVG Version: 6.00 Build 0)  -->
<svg version="1.0" id="Layer_1" xmlns="http://www.w3.org/2000/svg" xmlns:xlink="http://www.w3.org/1999/xlink" x="0px" y="0px"
	 viewBox="0 0 22 22" style="enable-background:new 0 0 22 22;" xml:space="preserve">
<style type="text/css">
	.st0{clip-path:url(#SVGID_2_);fill:none;stroke:#FFFFFF;stroke-width:2;stroke-miterlimit:10;}
	.st1{clip-path:url(#SVGID_4_);fill:#FFFFFF;}
	.st2{clip-path:url(#SVGID_6_);fill:#FFFFFF;}
	.st3{clip-path:url(#SVGID_8_);fill:none;stroke:#FFFFFF;stroke-width:2;stroke-miterlimit:10;}
	.st4{clip-path:url(#SVGID_10_);fill:#FFFFFF;}
	.st5{clip-path:url(#SVGID_12_);fill:#FFFFFF;}
	.st6{clip-path:url(#SVGID_14_);fill:#4B5155;}
	.st7{clip-path:url(#SVGID_16_);fill:none;stroke:#FFFFFF;stroke-width:2;stroke-miterlimit:10;}
	.st8{clip-path:url(#SVGID_18_);fill:#FFFFFF;}
	.st9{clip-path:url(#SVGID_20_);fill:#FFFFFF;}
</style>
<g>
	<defs>
		<path id="SVGID_1_" d="M6,7h10c0.6,0,1,0.4,1,1v7c0,0.6-0.4,1-1,1H6c-0.6,0-1-0.4-1-1V8C5,7.4,5.4,7,6,7z"/>
	</defs>
	<clipPath id="SVGID_2_">
		<use xlink:href="#SVGID_1_"  style="overflow:visible;"/>
	</clipPath>
	<path class="st0" d="M6,7h10c0.6,0,1,0.4,1,1v7c0,0.6-0.4,1-1,1H6c-0.6,0-1-0.4-1-1V8C5,7.4,5.4,7,6,7z"/>
</g>
<g>
	<defs>
		<circle id="SVGID_3_" cx="8" cy="10" r="1"/>
	</defs>
	<clipPath id="SVGID_4_">
		<use xlink:href="#SVGID_3_"  style="overflow:visible;"/>
	</clipPath>
	<rect x="2" y="4" class="st1" width="12" height="12"/>
</g>
<g>
	<defs>
		<polygon id="SVGID_5_" points="7,14 15.1,14 12,9.1 9.9,12.9 8.7,11.5 		"/>
	</defs>
	<clipPath id="SVGID_6_">
		<use xlink:href="#SVGID_5_"  style="overflow:visible;"/>
	</clipPath>
	<rect x="2" y="4.1" class="st2" width="18" height="14.9"/>
</g>
<g>
	<defs>
		<path id="SVGID_7_" d="M6,7h10c0.6,0,1,0.4,1,1v7c0,0.6-0.4,1-1,1H6c-0.6,0-1-0.4-1-1V8C5,7.4,5.4,7,6,7z"/>
	</defs>
	<clipPath id="SVGID_8_">
		<use xlink:href="#SVGID_7_"  style="overflow:visible;"/>
	</clipPath>
	<path class="st3" d="M6,7h10c0.6,0,1,0.4,1,1v7c0,0.6-0.4,1-1,1H6c-0.6,0-1-0.4-1-1V8C5,7.4,5.4,7,6,7z"/>
</g>
<g>
	<defs>
		<circle id="SVGID_9_" cx="8" cy="10" r="1"/>
	</defs>
	<clipPath id="SVGID_10_">
		<use xlink:href="#SVGID_9_"  style="overflow:visible;"/>
	</clipPath>
	<rect x="2" y="4" class="st4" width="12" height="12"/>
</g>
<g>
	<defs>
		<polygon id="SVGID_11_" points="7,14 15.1,14 12,9.1 9.9,12.9 8.7,11.5 		"/>
	</defs>
	<clipPath id="SVGID_12_">
		<use xlink:href="#SVGID_11_"  style="overflow:visible;"/>
	</clipPath>
	<rect x="2" y="4.1" class="st5" width="18" height="14.9"/>
</g>
<g>
	<defs>
		<path id="SVGID_13_" d="M2,0h18c1.1,0,2,0.9,2,2v18c0,1.1-0.9,2-2,2H2c-1.1,0-2-0.9-2-2V2C0,0.9,0.9,0,2,0z"/>
	</defs>
	<clipPath id="SVGID_14_">
		<use xlink:href="#SVGID_13_"  style="overflow:visible;"/>
	</clipPath>
	<rect x="-5" y="-5" class="st6" width="32" height="32"/>
</g>
<g>
	<defs>
		<path id="SVGID_15_" d="M6,7h10c0.6,0,1,0.4,1,1v7c0,0.6-0.4,1-1,1H6c-0.6,0-1-0.4-1-1V8C5,7.4,5.4,7,6,7z"/>
	</defs>
	<clipPath id="SVGID_16_">
		<use xlink:href="#SVGID_15_"  style="overflow:visible;"/>
	</clipPath>
	<path class="st7" d="M6,7h10c0.6,0,1,0.4,1,1v7c0,0.6-0.4,1-1,1H6c-0.6,0-1-0.4-1-1V8C5,7.4,5.4,7,6,7z"/>
</g>
<g>
	<defs>
		<circle id="SVGID_17_" cx="8" cy="10" r="1"/>
	</defs>
	<clipPath id="SVGID_18_">
		<use xlink:href="#SVGID_17_"  style="overflow:visible;"/>
	</clipPath>
	<rect x="2" y="4" class="st8" width="12" height="12"/>
</g>
<g>
	<defs>
		<polygon id="SVGID_19_" points="7,14 15.1,14 12,9.1 9.9,12.9 8.7,11.5 		"/>
	</defs>
	<clipPath id="SVGID_20_">
		<use xlink:href="#SVGID_19_"  style="overflow:visible;"/>
	</clipPath>
	<rect x="2" y="4.1" class="st9" width="18" height="14.9"/>
</g>
</svg>
