<?xml version="1.0" encoding="utf-8"?>
<!-- Generator: Adobe Illustrator 22.1.0, SVG Export Plug-In . SVG Version: 6.00 Build 0)  -->
<svg version="1.0" id="Layer_1" xmlns="http://www.w3.org/2000/svg" xmlns:xlink="http://www.w3.org/1999/xlink" x="0px" y="0px"
	 viewBox="0 0 22 22" style="enable-background:new 0 0 22 22;" xml:space="preserve">
<style type="text/css">
	.st0{clip-path:url(#SVGID_2_);fill:#4B5155;}
	.st1{fill:none;stroke:#FFFFFF;stroke-miterlimit:10;}
	.st2{clip-path:url(#SVGID_4_);enable-background:new    ;}
	.st3{clip-path:url(#SVGID_6_);}
	.st4{clip-path:url(#SVGID_8_);}
	.st5{clip-path:url(#SVGID_10_);fill:#FFFFFF;}
	.st6{clip-path:url(#SVGID_12_);fill:#4B5155;}
</style>
<g>
	<g>
		<defs>
			<path id="SVGID_1_" d="M2,0h18c1.1,0,2,0.9,2,2v18c0,1.1-0.9,2-2,2H2c-1.1,0-2-0.9-2-2V2C0,0.9,0.9,0,2,0z"/>
		</defs>
		<clipPath id="SVGID_2_">
			<use xlink:href="#SVGID_1_"  style="overflow:visible;"/>
		</clipPath>
		<rect x="-5" y="-5" class="st0" width="32" height="32"/>
	</g>
	<g>
		<g>
			<circle class="st1" cx="11" cy="11" r="6"/>
			<g>
				<defs>
					<rect id="SVGID_3_" x="9" y="8" width="4" height="6"/>
				</defs>
				<clipPath id="SVGID_4_">
					<use xlink:href="#SVGID_3_"  style="overflow:visible;"/>
				</clipPath>
				<g class="st2">
					<g>
						<defs>
							<rect id="SVGID_5_" x="8" y="8" width="6" height="6"/>
						</defs>
						<clipPath id="SVGID_6_">
							<use xlink:href="#SVGID_5_"  style="overflow:visible;"/>
						</clipPath>
						<g class="st3">
							<defs>
								<path id="SVGID_7_" d="M11,8c-2.1,0.2-2,2.3-2,2.3c0,1.9,2,3.7,2,3.7s2-1.9,2-3.7C13,10.3,13.1,8.2,11,8"/>
							</defs>
							<clipPath id="SVGID_8_">
								<use xlink:href="#SVGID_7_"  style="overflow:visible;"/>
							</clipPath>
							<g class="st4">
								<defs>
									<rect id="SVGID_9_" x="9" y="8" width="4" height="6"/>
								</defs>
								<clipPath id="SVGID_10_">
									<use xlink:href="#SVGID_9_"  style="overflow:visible;"/>
								</clipPath>
								<rect x="4" y="3" class="st5" width="14" height="16"/>
							</g>
						</g>
					</g>
				</g>
			</g>
		</g>
		<g>
			<defs>
				<path id="SVGID_11_" d="M10,10c0,0.6,0.4,1,1,1s1-0.4,1-1c0-0.6-0.4-1-1-1S10,9.4,10,10"/>
			</defs>
			<clipPath id="SVGID_12_">
				<use xlink:href="#SVGID_11_"  style="overflow:visible;"/>
			</clipPath>
			<rect x="5" y="4" class="st6" width="12" height="12"/>
		</g>
	</g>
</g>
</svg>
