<?xml version="1.0" encoding="utf-8"?>
<!-- Generator: Adobe Illustrator 22.1.0, SVG Export Plug-In . SVG Version: 6.00 Build 0)  -->
<svg version="1.0" id="Layer_1" xmlns="http://www.w3.org/2000/svg" xmlns:xlink="http://www.w3.org/1999/xlink" x="0px" y="0px"
	 viewBox="0 0 22 22" style="enable-background:new 0 0 22 22;" xml:space="preserve">
<style type="text/css">
	.st0{clip-path:url(#SVGID_2_);fill:#4B5155;}
	.st1{clip-path:url(#SVGID_4_);fill:#FFFFFF;}
	.st2{clip-path:url(#SVGID_6_);fill:#FFFFFF;}
	.st3{clip-path:url(#SVGID_8_);fill:#FFFFFF;}
	.st4{clip-path:url(#SVGID_10_);fill:#D8D8D8;}
	.st5{fill:none;stroke:#FFFFFF;stroke-width:1.2;stroke-miterlimit:10;}
	.st6{clip-path:url(#SVGID_12_);fill:none;stroke:#FFFFFF;stroke-width:2.4;stroke-miterlimit:10;}
	.st7{clip-path:url(#SVGID_14_);fill:none;stroke:#FFFFFF;stroke-width:2.4;stroke-miterlimit:10;}
	.st8{clip-path:url(#SVGID_16_);fill:none;stroke:#FFFFFF;stroke-width:2.4;stroke-miterlimit:10;}
	.st9{clip-path:url(#SVGID_18_);fill:none;stroke:#FFFFFF;stroke-width:2.4;stroke-miterlimit:10;}
</style>
<g>
	<g>
		<defs>
			<path id="SVGID_1_" d="M2,0h18c1.1,0,2,0.9,2,2v18c0,1.1-0.9,2-2,2H2c-1.1,0-2-0.9-2-2V2C0,0.9,0.9,0,2,0z"/>
		</defs>
		<clipPath id="SVGID_2_">
			<use xlink:href="#SVGID_1_"  style="overflow:visible;"/>
		</clipPath>
		<rect x="-5" y="-5" class="st0" width="32" height="32"/>
	</g>
	<g>
		<defs>
			<rect id="SVGID_3_" x="7.3" y="13.5" width="0.5" height="0.5"/>
		</defs>
		<clipPath id="SVGID_4_">
			<use xlink:href="#SVGID_3_"  style="overflow:visible;"/>
		</clipPath>
		<rect x="7.3" y="13.5" class="st1" width="0.5" height="0.5"/>
	</g>
	<g>
		<defs>
			<rect id="SVGID_5_" x="7.3" y="7.4" width="0.5" height="0.5"/>
		</defs>
		<clipPath id="SVGID_6_">
			<use xlink:href="#SVGID_5_"  style="overflow:visible;"/>
		</clipPath>
		<rect x="7.3" y="7.4" class="st2" width="0.5" height="0.5"/>
	</g>
	<g>
		<defs>
			<rect id="SVGID_7_" x="15.7" y="7.4" width="0.5" height="0.5"/>
		</defs>
		<clipPath id="SVGID_8_">
			<use xlink:href="#SVGID_7_"  style="overflow:visible;"/>
		</clipPath>
		<rect x="15.7" y="7.4" class="st3" width="0.5" height="0.5"/>
	</g>
	<g>
		<defs>
			<rect id="SVGID_9_" x="15.7" y="13.5" width="0.5" height="0.5"/>
		</defs>
		<clipPath id="SVGID_10_">
			<use xlink:href="#SVGID_9_"  style="overflow:visible;"/>
		</clipPath>
		<rect x="15.7" y="13.5" class="st4" width="0.5" height="0.5"/>
	</g>
	<g>
		<polygon class="st5" points="4,12.1 8.2,12.1 9.6,13.3 9.6,13.9 8.2,15.3 4,15.3 		"/>
		<polygon class="st5" points="4,6 8.2,6 9.6,7.3 9.6,7.8 8.2,9.3 4,9.3 		"/>
		<polygon class="st5" points="12.4,6 16.6,6 18,7.3 18,7.8 16.6,9.3 12.4,9.3 		"/>
		<polygon class="st5" points="12.4,12.1 16.6,12.1 18,13.3 18,13.9 16.6,15.3 12.4,15.3 		"/>
		<g>
			<defs>
				<rect id="SVGID_11_" x="7.3" y="13.5" width="0.5" height="0.5"/>
			</defs>
			<clipPath id="SVGID_12_">
				<use xlink:href="#SVGID_11_"  style="overflow:visible;"/>
			</clipPath>
			<rect x="7.3" y="13.5" class="st6" width="0.5" height="0.5"/>
		</g>
		<g>
			<defs>
				<rect id="SVGID_13_" x="7.3" y="7.4" width="0.5" height="0.5"/>
			</defs>
			<clipPath id="SVGID_14_">
				<use xlink:href="#SVGID_13_"  style="overflow:visible;"/>
			</clipPath>
			<rect x="7.3" y="7.4" class="st7" width="0.5" height="0.5"/>
		</g>
		<g>
			<defs>
				<rect id="SVGID_15_" x="15.7" y="7.4" width="0.5" height="0.5"/>
			</defs>
			<clipPath id="SVGID_16_">
				<use xlink:href="#SVGID_15_"  style="overflow:visible;"/>
			</clipPath>
			<rect x="15.7" y="7.4" class="st8" width="0.5" height="0.5"/>
		</g>
		<g>
			<defs>
				<rect id="SVGID_17_" x="15.7" y="13.5" width="0.5" height="0.5"/>
			</defs>
			<clipPath id="SVGID_18_">
				<use xlink:href="#SVGID_17_"  style="overflow:visible;"/>
			</clipPath>
			<rect x="15.7" y="13.5" class="st9" width="0.5" height="0.5"/>
		</g>
	</g>
</g>
</svg>
