<?xml version="1.0" encoding="utf-8"?>
<!-- Generator: Adobe Illustrator 22.1.0, SVG Export Plug-In . SVG Version: 6.00 Build 0)  -->
<svg version="1.0" id="Layer_1" xmlns="http://www.w3.org/2000/svg" xmlns:xlink="http://www.w3.org/1999/xlink" x="0px" y="0px"
	 viewBox="0 0 22 22" style="enable-background:new 0 0 22 22;" xml:space="preserve">
<style type="text/css">
	.st0{clip-path:url(#SVGID_2_);fill:#4B5155;}
	.st1{fill:none;stroke:#FFFFFF;stroke-width:1.2;stroke-miterlimit:10;}
</style>
<g>
	<defs>
		<path id="SVGID_1_" d="M2,0h18c1.1,0,2,0.9,2,2v18c0,1.1-0.9,2-2,2H2c-1.1,0-2-0.9-2-2V2C0,0.9,0.9,0,2,0z"/>
	</defs>
	<clipPath id="SVGID_2_">
		<use xlink:href="#SVGID_1_"  style="overflow:visible;"/>
	</clipPath>
	<rect x="-5" y="-5" class="st0" width="32" height="32"/>
</g>
<line class="st1" x1="10" y1="6.6" x2="12" y2="6.6"/>
<line class="st1" x1="13.7" y1="5.5" x2="13.7" y2="7.7"/>
<line class="st1" x1="8.2" y1="5.6" x2="8.2" y2="7.7"/>
<polyline class="st1" points="15.4,6.6 17,6.6 17,15.8 5.1,15.8 5.1,6.6 6.6,6.6 "/>
<polyline class="st1" points="8.7,11.4 10.2,12.8 13.3,9.7 "/>
</svg>
