<?xml version="1.0" encoding="utf-8"?>
<!-- Generator: Adobe Illustrator 22.1.0, SVG Export Plug-In . SVG Version: 6.00 Build 0)  -->
<svg version="1.0" id="Layer_1" xmlns="http://www.w3.org/2000/svg" xmlns:xlink="http://www.w3.org/1999/xlink" x="0px" y="0px"
	 viewBox="0 0 22 22" style="enable-background:new 0 0 22 22;" xml:space="preserve">
<style type="text/css">
	.st0{clip-path:url(#SVGID_2_);fill:none;stroke:#FFFFFF;stroke-width:2;stroke-miterlimit:10;}
	.st1{fill:none;stroke:#FFFFFF;stroke-miterlimit:10;}
	.st2{clip-path:url(#SVGID_4_);fill:#FFFFFF;}
	.st3{fill:none;stroke:#FFFFFF;stroke-width:1.2;stroke-miterlimit:10;}
	.st4{clip-path:url(#SVGID_6_);fill:#4B5155;}
	.st5{clip-path:url(#SVGID_8_);fill:none;stroke:#FFFFFF;stroke-width:2.4;stroke-miterlimit:10;}
	.st6{clip-path:url(#SVGID_10_);fill:#FFFFFF;}
</style>
<g>
	<g>
		<defs>
			<rect id="SVGID_1_" x="4.1" y="7" width="10.7" height="8"/>
		</defs>
		<clipPath id="SVGID_2_">
			<use xlink:href="#SVGID_1_"  style="overflow:visible;"/>
		</clipPath>
		<rect x="4.1" y="7" class="st0" width="10.7" height="8"/>
	</g>
	<polyline class="st1" points="14.4,10.3 17.9,8.4 17.9,13.8 14.4,11.6 	"/>
	<g>
		<defs>
			<polygon id="SVGID_3_" points="8.4,9.6 8.4,12.5 10.7,11 			"/>
		</defs>
		<clipPath id="SVGID_4_">
			<use xlink:href="#SVGID_3_"  style="overflow:visible;"/>
		</clipPath>
		<rect x="3.4" y="4.6" class="st2" width="12.3" height="12.9"/>
	</g>
</g>
<g>
	<polygon class="st3" points="5.8,5.3 12.4,5.3 16.2,9.1 16.2,16.7 5.8,16.7 	"/>
	<polyline class="st3" points="12.3,5.3 12.3,8.9 16.2,8.9 	"/>
	<line class="st3" x1="7.5" y1="9" x2="10.7" y2="9"/>
	<line class="st3" x1="7.5" y1="11.5" x2="14.5" y2="11.5"/>
	<line class="st3" x1="7.5" y1="14" x2="14.6" y2="14"/>
</g>
<g>
	<defs>
		<path id="SVGID_5_" d="M2,0h18c1.1,0,2,0.9,2,2v18c0,1.1-0.9,2-2,2H2c-1.1,0-2-0.9-2-2V2C0,0.9,0.9,0,2,0z"/>
	</defs>
	<clipPath id="SVGID_6_">
		<use xlink:href="#SVGID_5_"  style="overflow:visible;"/>
	</clipPath>
	<rect x="-5" y="-5" class="st4" width="32" height="32"/>
</g>
<g>
	<defs>
		<path id="SVGID_7_" d="M7.5,6.4h7c1.7,0,3,1.3,3,3v3.3c0,1.7-1.3,3-3,3h-7c-1.7,0-3-1.3-3-3V9.4C4.5,7.7,5.8,6.4,7.5,6.4z"/>
	</defs>
	<clipPath id="SVGID_8_">
		<use xlink:href="#SVGID_7_"  style="overflow:visible;"/>
	</clipPath>
	<path class="st5" d="M7.5,6.4h7c1.7,0,3,1.3,3,3v3.3c0,1.7-1.3,3-3,3h-7c-1.7,0-3-1.3-3-3V9.4C4.5,7.7,5.8,6.4,7.5,6.4z"/>
</g>
<g>
	<defs>
		<polygon id="SVGID_9_" points="9.6,9.1 9.6,12.9 12.4,11.2 		"/>
	</defs>
	<clipPath id="SVGID_10_">
		<use xlink:href="#SVGID_9_"  style="overflow:visible;"/>
	</clipPath>
	<rect x="4.6" y="4.1" class="st6" width="12.8" height="13.7"/>
</g>
</svg>
